# xmcd
#
# Track frame offsets: 
#        150
#        37125
#        58170
#
# Disc length: 1202 seconds
#
# Revision: 0
# Processed by: cddbd v1.5.2PL0 Copyright (c) Steve Scherf et al.
# Submitted via: ExactAudioCopy v0.95b4
#
DISCID=2704b003
DTITLE=Simply Res - Your Eyes CD II
DYEAR=1999
DGENRE=Blues
TTITLE0=Your Eyes (Mousse T Super Funk Mix)
TTITLE1=Your Eyes (Ignorants Mix)
TTITLE2=Your Eyes (Jimmy Gomez Funky Mix)
EXTD=
EXTT0=
EXTT1=
EXTT2=
PLAYORDER=
